<svg width="16" height="15" viewBox="0 0 16 15" fill="none" xmlns="http://www.w3.org/2000/svg">
<path d="M15.3601 7.296C15.3601 6.288 14.5441 5.76 13.4401 5.76H10.2241C10.4641 4.896 10.5601 4.08 10.5601 3.36C10.5601 0.576 9.79207 0 9.12007 0C8.68807 0 8.35207 0.0480002 7.92007 0.288C7.77607 0.384 7.72807 0.48 7.68007 0.624L7.20007 3.216C6.67207 4.56 5.37607 5.76 4.32007 6.576V13.44C4.70407 13.44 5.08807 13.632 5.56807 13.872C6.09607 14.112 6.62407 14.4 7.20007 14.4H11.7601C12.7201 14.4 13.4401 13.632 13.4401 12.96C13.4401 12.816 13.4401 12.72 13.3921 12.624C13.9681 12.384 14.4001 11.904 14.4001 11.28C14.4001 10.992 14.3521 10.752 14.2561 10.512C14.6401 10.272 14.9761 9.84 14.9761 9.36C14.9761 9.072 14.8321 8.784 14.6881 8.544C15.0721 8.256 15.3601 7.776 15.3601 7.296V7.296ZM14.3521 7.296C14.3521 7.92 13.7281 7.968 13.6321 8.256C13.5361 8.592 14.0161 8.688 14.0161 9.264C14.0161 9.84 13.2961 9.84 13.2001 10.176C13.1041 10.56 13.4401 10.656 13.4401 11.232V11.328C13.3441 11.808 12.6241 11.856 12.4801 12.048C12.3361 12.288 12.4801 12.384 12.4801 12.912C12.4801 13.2 12.1441 13.392 11.7601 13.392H7.20007C6.81607 13.392 6.43207 13.2 5.95207 12.96C5.56807 12.768 5.18407 12.576 4.80007 12.48V7.44C6.00007 6.528 7.53607 5.184 8.11207 3.504V3.408L8.54407 1.008C8.73607 0.96 8.88007 0.96 9.12007 0.96C9.21607 0.96 9.60007 1.536 9.60007 3.36C9.60007 4.08 9.45607 4.848 9.21607 5.76H9.12007C8.83207 5.76 8.64007 5.952 8.64007 6.24C8.64007 6.528 8.83207 6.72 9.12007 6.72H13.4401C13.9201 6.72 14.3521 6.96 14.3521 7.296Z" fill="black"/>
<path d="M3.84 14.4H0.96C0.432 14.4 0 13.968 0 13.44V6.72001C0 6.19201 0.432 5.76001 0.96 5.76001H3.84C4.368 5.76001 4.8 6.19201 4.8 6.72001V13.44C4.8 13.968 4.368 14.4 3.84 14.4ZM0.96 6.72001V13.44H3.84V6.72001H0.96Z" fill="black"/>
</svg>
